<?xml version="1.0" encoding="UTF-8"?>
<svg enable-background="new 0 0 38.1 38.1" version="1.1" viewBox="0 0 38.1 38.1" xmlns="http://www.w3.org/2000/svg">
 <style type="text/css">.st0{fill:#00A5CB;} .st1{fill:#0190B0;} .st2{fill:#FFFFFF;} .st3{fill:#F2F2F2;}</style>
 <path class="st0" d="M19.1,37.9C8.7,37.9,0.3,29.4,0.3,19S8.7,0.2,19.1,0.2"/>
 <path class="st1" d="M19.1,0.2C29.6,0.2,38,8.6,38,19s-8.7,18.8-19.1,18.8"/>
 <path class="st2" d="m19.1 4.8s-7.2 13.1-7.2 17c0 4 3.2 7.2 7.2 7.2s7.2-3.2 7.2-7.2c0-3.9-7.2-17-7.2-17zm3.8 17h-2.9v2.9c0 0.5-0.4 0.9-0.9 0.9s-0.9-0.4-0.9-0.9v-2.9h-2.9c-0.5 0-0.9-0.4-0.9-0.9s0.4-0.9 0.9-0.9h2.9v-2.9c0-0.5 0.4-0.9 0.9-0.9s0.9 0.4 0.9 0.9v2.9h2.9c0.5 0 0.9 0.4 0.9 0.9s-0.4 0.9-0.9 0.9z"/>
</svg>
