<?xml version="1.0" encoding="UTF-8"?>
<svg viewBox="0 0 512 512" xmlns="http://www.w3.org/2000/svg" xmlns:xlink="http://www.w3.org/1999/xlink">
 <defs>
  <filter id="c">
   <feGaussianBlur stdDeviation="3.4674"/>
  </filter>
  <filter id="o">
   <feGaussianBlur stdDeviation="1.2461"/>
  </filter>
  <filter id="n">
   <feGaussianBlur stdDeviation="1.8293"/>
  </filter>
  <filter id="p" x="-.5076" y="-.5076" width="2.0152" height="2.0152">
   <feGaussianBlur stdDeviation="36.961"/>
  </filter>
  <linearGradient id="b">
   <stop stop-color="#999" offset="0"/>
   <stop stop-color="#ccc" offset=".3403"/>
   <stop stop-color="#666" stop-opacity=".9686" offset=".3661"/>
   <stop stop-color="#e6e6e6" offset=".4224"/>
   <stop stop-color="#fff" offset=".5862"/>
   <stop stop-color="#666" stop-opacity=".9373" offset=".6165"/>
   <stop offset=".6382"/>
   <stop stop-color="#e6e6e6" offset=".6627"/>
   <stop stop-color="#999" offset=".7353"/>
   <stop stop-color="#fff" offset=".7756"/>
   <stop stop-color="#999" offset="1"/>
  </linearGradient>
  <linearGradient id="m" x1="557.01" x2="111.71" y1="775.99" y2="330.7" gradientUnits="userSpaceOnUse">
   <stop offset="0"/>
   <stop stop-color="#ccc" offset="1"/>
  </linearGradient>
  <linearGradient id="k" x1="177.64" x2="533.34" y1="354.37" y2="691.66" gradientUnits="userSpaceOnUse">
   <stop stop-color="#666" offset="0"/>
   <stop stop-color="#999" offset=".2684"/>
   <stop stop-color="#ccc" offset=".3403"/>
   <stop stop-color="#b3b3b3" offset=".397"/>
   <stop stop-color="#e6e6e6" offset=".4547"/>
   <stop stop-color="#999" offset=".5417"/>
   <stop stop-color="#fff" offset=".6165"/>
   <stop stop-color="#e6e6e6" offset=".6627"/>
   <stop stop-color="#999" offset=".7353"/>
   <stop stop-color="#fff" offset=".7756"/>
   <stop stop-color="#e6e6e6" offset="1"/>
  </linearGradient>
  <linearGradient id="j" x2="0" y1="370.23" y2="736.46" gradientUnits="userSpaceOnUse">
   <stop stop-color="#ff00f2" offset="0"/>
   <stop stop-color="#00002b" offset="1"/>
  </linearGradient>
  <linearGradient id="i" x1="189.03" x2="537.63" gradientUnits="userSpaceOnUse">
   <stop offset="0"/>
   <stop stop-color="#00f" offset="1"/>
  </linearGradient>
  <linearGradient id="h" x1="197.28" x2="1387.9" y1="512.46" y2="511.06" gradientTransform="matrix(-.24128 0 0 .70372 532.94 167.05)" gradientUnits="userSpaceOnUse">
   <stop offset="0"/>
   <stop stop-color="#fff" stop-opacity="0" offset="1"/>
  </linearGradient>
  <linearGradient id="g" x1="1577.4" x2="81.628" y1="545.27" y2="545.92" gradientTransform="matrix(0 .24128 .70372 0 -49.362 353.96)" gradientUnits="userSpaceOnUse">
   <stop stop-color="#00002b" offset="0"/>
   <stop stop-color="#00f" offset=".5"/>
   <stop offset="1"/>
  </linearGradient>
  <linearGradient id="e" x1="341.33" x2="342.91" y1="309.07" y2="658.43" gradientTransform="matrix(.65994 0 0 .49683 111.9 230.43)" gradientUnits="userSpaceOnUse">
   <stop stop-color="#fff" offset="0"/>
   <stop stop-color="#fff" stop-opacity="0" offset="1"/>
  </linearGradient>
  <linearGradient id="a" x1="75.929" x2="104.79" y1="250.93" y2="250.84" gradientUnits="userSpaceOnUse">
   <stop offset="0"/>
   <stop stop-opacity="0" offset="1"/>
  </linearGradient>
  <linearGradient id="l" x1="159" x2="557.01" y1="330.7" y2="708.11" gradientUnits="userSpaceOnUse" xlink:href="#b"/>
  <linearGradient id="f" x1="241.79" x2="374.4" y1="553.35" y2="642.24" gradientUnits="userSpaceOnUse" xlink:href="#b"/>
  <radialGradient id="d" cx="301.03" cy="525.63" r="92.566" gradientTransform="matrix(.79266 1.2986 -.96423 .58855 569.24 -178.24)" gradientUnits="userSpaceOnUse">
   <stop stop-color="#f00" offset="0"/>
   <stop offset="1"/>
  </radialGradient>
 </defs>
 <g transform="translate(-76.822 -294.84)">
  <path d="m184.06 334.96h300.6a68.093 68.093 0 0 1 68.093 68.093v300.6a68.093 68.093 0 0 1 -68.093 68.093h-300.6a68.093 68.093 0 0 1 -68.093 -68.093v-300.6a68.093 68.093 0 0 1 68.093 -68.093" fill="url(#l)" fill-rule="evenodd" stroke="url(#m)" stroke-width="10"/>
  <path d="m200.04 358.17h268.64a60.855 60.855 0 0 1 60.855 60.855v268.64a60.855 60.855 0 0 1 -60.855 60.855h-268.64a60.855 60.855 0 0 1 -60.855 -60.855v-268.64a60.855 60.855 0 0 1 60.855 -60.855" fill="url(#k)" fill-rule="evenodd" stroke="#fff" stroke-width="2"/>
  <path d="m210.1 372.79h248.52a56.298 56.298 0 0 1 56.298 56.298v248.52a56.298 56.298 0 0 1 -56.298 56.298h-248.52a56.298 56.298 0 0 1 -56.298 -56.298v-248.52a56.298 56.298 0 0 1 56.298 -56.298" fill="url(#j)" fill-rule="evenodd" stroke="#000" stroke-width="6"/>
  <path d="m205.12 374.51 63.239-1.7196c8.8024 0 130.54-3.8297 198.71 1.081 29.383 2.1166 49.776 37.68 47.887 45.824l1.1706 252.03c-0.71429 26.984-19.644 58.254-52.771 61.247-71.854 6.4934-186.98 0.93583-195 0.93583l-65.124-1.7196c-11.721 0-49.43-23.389-49.43-54.578v-248.52c-1.9334-32.478 35.931-57.02 51.315-54.578z" fill="url(#i)" fill-rule="evenodd" opacity=".6398"/>
  <path d="m466.38 371.93-57.694-1.7196c-10.693 0-228.24-9.2836-228.24 21.905l-1.7196 319.89c0 31.189 219.26 19.326 229.96 19.326l59.414-1.7196c11.421 2.5473 46.601-18.121 45.096-54.578v-248.52c0-31.189-36.123-54.578-46.816-54.578z" fill="url(#h)" fill-rule="evenodd" opacity=".6398"/>
  <path d="m155.51 420.52-1.7196 57.694c0.33036 8.3102 2.2052 141.14 1.6128 202.75 1.1344 33.936 32.543 52.113 55.229 52.779 63.614 3.3074 174.42-4.6038 250.44-3.296 27.004 0.46458 45.209-16.6 52.578-45.379 1.0608-65.444 1.2604-198.77 1.2604-206.85l-1.7196-59.414c2.5473-11.421-18.121-46.601-54.578-45.096h-248.52c-31.189 0-54.578 36.123-54.578 46.816z" fill="url(#g)" fill-rule="evenodd" opacity=".6398"/>
  <path transform="translate(76.822 294.84)" d="m77.386 129.14-0.60666 263.58c6.2098 18.294 20.056 33.861 37.501 42.162 18.624 8.862 41.084 9.2526 60.006 1.0436l-3.9286-358.93-58.204 4.3296-34.767 47.812" fill="url(#a)" filter="url(#c)"/>
  <path d="m210.1 372.79h248.52a56.298 56.298 0 0 1 56.298 56.298v248.52a56.298 56.298 0 0 1 -56.298 56.298h-248.52a56.298 56.298 0 0 1 -56.298 -56.298v-248.52a56.298 56.298 0 0 1 56.298 -56.298" fill="none" stroke="#000" stroke-width="6"/>
  <path transform="matrix(.85117 0 0 .85117 21.39 60.001)" d="m451.54 572.03c0 48.258-39.121 87.378-87.378 87.378s-87.378-39.121-87.378-87.378 39.121-87.378 87.378-87.378 87.378 39.121 87.378 87.378z" fill="#d5f6ff" fill-rule="evenodd" filter="url(#p)"/>
  <path d="m175.13 669.17c20.171 49.009 26.869 45.862 158.61 45.651 86.326-0.13828 151.66 5.8846 156.08-43.072 1.4259 28.026-20.826 44.611-47.119 45.775-71.329 3.1177-135.87 3.543-213.98 1.4723-33.375 0.92905-47.135-17.754-53.595-49.827" fill="#fff" filter="url(#n)"/>
  <path d="m231.08 387.4h208.29c26.139 0 48.902 25.3 48.902 44.979 1.8879 25.012 5.9437 50.566-0.85981 73.406-33.975 97.21-289.96 92.048-302.65-8.5981-5.39-20.743-3.3831-40.626-2.5794-61.368 0-19.679 22.763-48.418 48.902-48.418z" fill="url(#e)" fill-rule="evenodd" filter="url(#o)"/>
  <path d="m335.08 451.28a11.639 9.1831 0 0 0 -11.502 9.3683v66.578a11.639 9.1831 0 1 0 23.271 0v-66.578a11.639 9.1831 0 0 0 -11.769 -9.3683zm-24.171 27.338c-0.37853 0.0108-0.76928 0.0436-1.1669 0.1-37.704 10.748-65.445 45.539-65.445 86.615 0 49.602 40.448 90.083 90.049 90.083s90.083-40.481 90.083-90.083c0-40.763-27.346-75.287-64.611-86.315-11.954-1.0552-11.783 23.951 0 23.971 24.606 10.01 41.907 34.047 41.907 62.344 0 37.336-30.043 67.379-67.379 67.379s-67.379-30.043-67.379-67.379c0-28.636 17.697-52.924 42.774-62.711 15.333-3.3618 12.901-24.34 1.1669-24.004z" fill="none" stroke="#f1ddf0" stroke-width="5"/>
  <path transform="matrix(-1 0 0 1 592.89 290.56)" d="m77.386 129.14-0.60666 263.58c6.2098 18.294 20.056 33.861 37.501 42.162 18.624 8.862 41.084 9.2526 60.006 1.0436l-3.9286-358.93-58.204 4.3296-34.767 47.812" fill="url(#a)" filter="url(#c)"/>
  <path d="m335.08 451.28a11.639 9.1831 0 0 0 -11.502 9.3683v66.578a11.639 9.1831 0 1 0 23.271 0v-66.578a11.639 9.1831 0 0 0 -11.769 -9.3683zm-24.171 27.338c-0.37853 0.0108-0.76928 0.0436-1.1669 0.1-37.704 10.748-65.445 45.539-65.445 86.615 0 49.602 40.448 90.083 90.049 90.083s90.083-40.481 90.083-90.083c0-40.763-27.346-75.287-64.611-86.315-11.954-1.0552-11.783 23.951 0 23.971 24.606 10.01 41.907 34.047 41.907 62.344 0 37.336-30.043 67.379-67.379 67.379s-67.379-30.043-67.379-67.379c0-28.636 17.697-52.924 42.774-62.711 15.333-3.3618 12.901-24.34 1.1669-24.004z" fill="url(#d)" stroke="url(#f)" stroke-width="5"/>
 </g>
</svg>
