<?xml version="1.0" encoding="UTF-8"?>
<svg viewBox="0 0 34 34" xmlns="http://www.w3.org/2000/svg" xmlns:xlink="http://www.w3.org/1999/xlink">
 <defs>
  <filter id="a"/>
  <linearGradient id="c">
   <stop stop-color="#fff" offset="0"/>
   <stop stop-color="#fff" stop-opacity="0" offset="1"/>
  </linearGradient>
  <linearGradient id="b">
   <stop stop-color="#fff" offset="0"/>
   <stop stop-color="#0dee1b" stop-opacity="0" offset="1"/>
  </linearGradient>
  <radialGradient id="j" cx="362.86" cy="549.51" r="15" gradientUnits="userSpaceOnUse">
   <stop stop-color="#020202" stop-opacity="0" offset="0"/>
   <stop stop-color="#262626" stop-opacity=".49804" offset=".9"/>
   <stop stop-color="#c4c4c4" stop-opacity=".81746" offset="1"/>
  </radialGradient>
  <radialGradient id="d" cx="-87.5" cy="62.5" r="2.5" gradientUnits="userSpaceOnUse">
   <stop offset="0"/>
   <stop offset=".36963"/>
   <stop stop-color="#a6a6a6" offset=".84275"/>
   <stop stop-color="#353535" offset=".88689"/>
   <stop offset="1"/>
  </radialGradient>
  <radialGradient id="e" cx="-79.366" cy="78.384" r="3.5991" gradientTransform="matrix(1.5309 1.2916 -2.1867 2.5917 646.39 446.16)" gradientUnits="userSpaceOnUse" xlink:href="#c"/>
  <radialGradient id="f" cx="-66.436" cy="71.562" r="1.6032" gradientTransform="matrix(.99933 .036576 -.12719 3.4751 441.91 294.72)" gradientUnits="userSpaceOnUse" xlink:href="#c"/>
  <radialGradient id="g" cx="-71.29" cy="70.94" r="1.8178" gradientTransform="matrix(.99939 .034888 -.15615 4.4729 443.89 224.25)" gradientUnits="userSpaceOnUse" xlink:href="#b"/>
  <radialGradient id="h" cx="-42.685" cy="104.6" r="10.386" gradientTransform="matrix(.19257 3.6811e-7 -3.1289e-6 1.6368 379.08 382.3)" gradientUnits="userSpaceOnUse" xlink:href="#b"/>
  <radialGradient id="i" cx="-49.685" cy="95.677" r="1.7537" gradientTransform="matrix(1 0 0 3.5146 413.54 209.24)" gradientUnits="userSpaceOnUse" xlink:href="#b"/>
 </defs>
 <g transform="translate(-345.86 -532.51)">
  <path transform="matrix(6.8 0 0 6.8 957.86 124.51)" d="m-85 62.5c0 1.3807-1.1193 2.5-2.5 2.5s-2.5-1.1193-2.5-2.5 1.1193-2.5 2.5-2.5 2.5 1.1193 2.5 2.5z" fill="url(#d)"/>
  <path transform="matrix(6 0 0 6 857.86 144.51)" d="m-80 67.5c0 1.3807-1.1193 2.5-2.5 2.5s-2.5-1.1193-2.5-2.5 1.1193-2.5 2.5-2.5 2.5 1.1193 2.5 2.5z" fill="#0ac100"/>
  <path d="m362.86 534.51c-8.2843 0-15 6.7157-15 15s6.7157 15 15 15 15-6.7157 15-15-6.7157-15-15-15zm-1.6875 3.1875h3.5v12.312h-3.5v-12.312zm-1.4688 2.2188v3.7188c-2.2155 1.164-3.75 3.4517-3.75 6.125 0 3.839 3.1297 6.9688 6.9688 6.9688s6.9688-3.1297 6.9688-6.9688c0-2.6748-1.5653-4.9614-3.7812-6.125v-3.7188c4.1533 1.3558 7.1875 5.2356 7.1875 9.8438 0 5.7344-4.6406 10.375-10.375 10.375s-10.406-4.6406-10.406-10.375c1e-5 -4.6077 3.0367-8.4871 7.1875-9.8438z"/>
  <path d="m362.86 534.51c-8.2843 0-15 6.7157-15 15s6.7157 15 15 15 15-6.7157 15-15-6.7157-15-15-15zm0 1.5c7.4558 0 13.5 6.0442 13.5 13.5s-6.0442 13.5-13.5 13.5-13.5-6.0442-13.5-13.5 6.0442-13.5 13.5-13.5z" fill="url(#j)"/>
  <path d="m363.06 534.7c-8.2843 0-15 6.7157-15 15 0 2.1558 0.46242 4.2099 1.2812 6.0625-0.17981-0.991-0.28125-2.0196-0.28125-3.0625 0-9.3888 7.6112-17 17-17 1.0429 0 2.0715 0.10144 3.0625 0.28125-1.8526-0.81883-3.9067-1.2812-6.0625-1.2812z" fill="#ccc" fill-opacity=".47917" filter="url(#a)"/>
  <path d="m359.86 537.51c-4.0593 2.411-7.685 5.4724-9 12 0.58992-0.38221 1.1812-0.76484 1.8438-1.0938 0.41986-3.4942 2.5863-6.4339 5.5938-7.9688 0.38284-1.0642 0.90158-2.0454 1.5625-2.9375zm-2.25 7.7812c-0.52976 0.64573-0.91916 1.4098-1.1875 2.2188 0.44902-0.0193 0.9146-0.0349 1.4375 0-0.13749-0.77734-0.21747-1.5064-0.25-2.2188z" fill="#ccc" fill-opacity=".47917" filter="url(#a)"/>
  <path d="m361.16 537.61v12.327h3.5074v-12.327h-3.5074z" fill="url(#i)" fill-rule="evenodd"/>
  <path d="m359.66 539.89c-4.1508 1.3566-7.168 5.2334-7.168 9.8411 1e-5 5.7344 4.6515 10.386 10.386 10.386s10.386-4.6515 10.386-10.386c-1e-5 -4.6082-3.0317-8.4853-7.185-9.8411v3.7117c2.216 1.1636 3.7628 3.4546 3.7628 6.1294 1e-5 3.839-3.1246 6.9636-6.9636 6.9636s-6.9637-3.1246-6.9637-6.9636c-1e-5 -2.6733 1.5303-4.9654 3.7457-6.1294v-3.7117z" fill="url(#h)" fill-rule="evenodd"/>
  <path d="m361.16 537.71v7.8l0.7-7 2.8-0.8h-3.5z" fill="url(#g)" filter="url(#a)"/>
  <path d="m366.11 543.6-0.037-3.627c1.2226 0.23916 2.2104 0.9482 3.2064 1.6406l-2.5073-0.66229-0.66211 2.6487z" fill="url(#f)" filter="url(#a)"/>
  <path d="m359.74 541.51-0.11652-1.573c-7.665 2.3501-9.4038 12.287-3.7578 17.449-6.0678-7.6455-0.94121-15.819 3.8743-15.876z" fill="url(#e)" filter="url(#a)"/>
 </g>
</svg>
