<?xml version="1.0" encoding="UTF-8"?>
<!DOCTYPE svg PUBLIC "-//W3C//DTD SVG 1.1//EN" "http://www.w3.org/Graphics/SVG/1.1/DTD/svg11.dtd">
<!-- Creator: CorelDRAW X7 -->
<svg xmlns="http://www.w3.org/2000/svg" xml:space="preserve" width="210mm" height="297mm" version="1.1" style="shape-rendering:geometricPrecision; text-rendering:geometricPrecision; image-rendering:optimizeQuality; fill-rule:evenodd; clip-rule:evenodd"
viewBox="0 0 21000 29700"
 xmlns:xlink="http://www.w3.org/1999/xlink">
 <defs>
  <style type="text/css">
   <![CDATA[
    .fil0 {fill:#00A5CB}
    .fil1 {fill:#0190B0}
    .fil3 {fill:#D6D6D6}
    .fil2 {fill:white}
   ]]>
  </style>
 </defs>
 <g id="Layer_x0020_1">
  <metadata id="CorelCorpID_0Corel-Layer"/>
  <path class="fil0" d="M10900 22980l0 -20000c-5523,0 -10000,4477 -10000,10000 0,5523 4477,10000 10000,10000z"/>
  <path class="fil1" d="M10900 2980l0 20000c5523,0 10000,-4477 10000,-10000 0,-5523 -4477,-10000 -10000,-10000z"/>
  <polygon class="fil2" points="15347,11540 12305,11540 12305,8498 9263,8498 9263,11540 6221,11540 6221,14582 9263,14582 9263,17624 12305,17624 12305,14582 15347,14582 "/>
  <rect class="fil3" x="9263" y="8498" width="518" height="3056"/>
  <rect class="fil3" x="6221" y="11540" width="518" height="3056"/>
  <rect class="fil3" x="9263" y="14582" width="518" height="3056"/>
 </g>
</svg>
