<?xml version="1.0" encoding="UTF-8"?>
<svg viewBox="0 0 701.80939 664.45471" xmlns="http://www.w3.org/2000/svg" xmlns:xlink="http://www.w3.org/1999/xlink">
 <defs>
  <filter id="e">
   <feGaussianBlur stdDeviation="3.97086"/>
  </filter>
  <filter id="f">
   <feGaussianBlur stdDeviation="3.74455"/>
  </filter>
  <linearGradient id="c" x1="1471.3" x2="1466.8" y1="6595.6" y2="6168.1" gradientUnits="userSpaceOnUse">
   <stop offset="0"/>
   <stop stop-opacity="0" offset="1"/>
  </linearGradient>
  <linearGradient id="a">
   <stop stop-color="#fff" offset="0"/>
   <stop stop-color="#fff" stop-opacity="0" offset="1"/>
  </linearGradient>
  <linearGradient id="d" x1="1471.4" x2="1469.1" y1="4807.4" y2="4602.6" gradientUnits="userSpaceOnUse" xlink:href="#a"/>
  <linearGradient id="b" x1="1499" x2="1492.1" y1="4909.8" y2="5150.9" gradientTransform="matrix(1.042 0 0 2.2648 -73.936 -5343.8)" gradientUnits="userSpaceOnUse" xlink:href="#a"/>
 </defs>
 <g transform="matrix(1.5223 0 0 1.5223 -1906.4 -8949.4)">
  <path d="m1641.4 5906.5c-107.63 0.2706-215.28-0.275-322.91 0.3126-24.048 2.4514-42.319 26.789-39.122 50.625 0.3482 99.151-0.7236 198.35 0.5904 297.47 3.5874 23.083 27.309 39.961 50.344 36.906 106.3-0.2637 212.65 0.5529 318.91-0.4368 23.556-3.0737 40.992-27.078 37.904-50.469-0.2579-98.768 0.5433-197.56-0.4045-296.31-2.856-21.558-23.496-39.065-45.313-38.094z" filter="url(#e)"/>
  <path d="m1324.5 5909.4h318.39c22.106 0 39.903 17.797 39.903 39.903v295.89c0 22.106-17.797 39.903-39.903 39.903h-318.39c-22.106 0-39.903-17.797-39.903-39.903v-295.89c0-22.106 17.797-39.903 39.903-39.903z" fill="#f00" stroke="#d40000" stroke-width="3"/>
  <path d="m1326.7 5909.4h318.39c22.106 0 39.903 17.797 39.903 39.903v295.89c0 22.106-17.797 39.903-39.903 39.903h-318.39c-22.106 0-39.903-17.797-39.903-39.903v-295.89c0-22.106 17.797-39.903 39.903-39.903z" fill="url(#c)"/>
  <path transform="matrix(-1 0 0 -1 2978.7 10715)" d="m1655.5 4444.8c-4.793 0.5602-1.703 5.5631 1.7187 5.6875 18.515 7.8774 28.751 29.128 25.711 48.75-0.5387 89.326 1.237 178.71-1.0238 268-4.5621 21.944-28.442 36.766-50.219 33.153-96.339-0.5175-192.72 1.1117-289.03-0.9341-17.224-3.4141-30.038-18.915-33.474-35.615-2.4992-9.4552-4.5365 1.9534-4.1674 6.0214-0.9617 11.387 2.9521 23.441 12.579 30.125 9.322 7.6329 21.992 8.3985 33.5 7.1186 104.33-0.3933 208.7 0.892 313-0.7436 18.474-4.0375 29.092-24.974 25.465-42.75-0.5424-97.886 1.1097-195.85-0.9028-293.69-3.5787-14.574-18.078-25.681-33.156-25.125zm-322.56 0.4375c-19.294 2.3707-31.84 23.648-28.092 42.125 0.5441 10.149-1.013 20.746 0.8727 30.609 1.7428 6.6781 4.5781-3.6467 3.8752-6.6402 0.4203-15.714-2.9176-33.723 7.9063-46.812 6.2555-9.2117 16.709-13.421 26.187-18.438-3.582-0.394-7.1305-1.1153-10.75-0.8437z" fill="url(#d)" filter="url(#f)" opacity=".88"/>
  <path d="m1503.8 5994.1c-10.06-2.6549-8.3218 20.909 0 22.85 42.761 10.086 74.515 47.679 74.515 92.54 0 52.591-43.641 95.238-97.494 95.238s-97.52-42.647-97.52-95.238c0-42.572 28.613-78.617 68.082-90.802 8.5471-2.019 10.066-25.751 0-23.343-51.972 12.663-90.491 58.539-90.491 113.21 0 64.449 53.518 116.69 119.51 116.69s119.49-52.237 119.49-116.69c0-56.634-41.295-103.84-96.094-114.46z" fill="#fff" opacity=".88"/>
  <path d="m1473.2 5945.7h8.5575a12.356 12.356 0 0 1 12.356 12.356v103.55a12.356 12.356 0 0 1 -12.356 12.356h-8.5575a12.356 12.356 0 0 1 -12.356 -12.356v-103.55a12.356 12.356 0 0 1 12.356 -12.356" fill="#fff" opacity=".88"/>
  <path d="m1501.9 5997.4c-3.7142 4.1445-1.7197 10.941 0.9375 15.063 5.0109 4.0215 12.333 3.0305 17.738 6.4851 39.176 16.045 66.174 59.193 60.325 101.73-4.6369 41.989-39.036 78.476-80.718 85.432-37.958 7.2624-79.708-8.124-101.91-40.026-22.329-31.027-24.651-75.958-3.3125-108.06 12.997-20.806 34.123-35.834 57.031-43.5 3.5541-4.2282 4.9771-11.648 0.9687-15.875-6.1476-0.02-11.622 3.5874-17.469 5.0938-45.343 17.892-76.975 67.288-70.945 116.38 4.6121 44.558 37.773 84.321 80.735 96.758 41.661 12.864 90.503 1.2916 120.21-30.857 26.908-28.1 38.557-70.76 26.854-108.41-11.865-40.824-48.076-74.1-90.452-80.217z" fill="#fff" opacity=".88"/>
  <path d="m1476.5 5948.7c-5.5784-0.3585-12.222 2.2482-12.375 8.75-0.8278 8.9589 0.5377 17.973-0.062 26.966 0.1584 27.096-1.0458 54.368 0.875 81.347 4.0263 6.8668 13.86 6.2358 20.5 4.3124 4.8391-2.1231 6.4309-7.7869 5.3846-12.591 0.046-34.212 0.8173-68.563-0.4471-102.69-2.1806-5.4386-8.6252-6.7322-13.875-6.0938z" fill="#fff" opacity=".88"/>
  <path d="m1644.5 5925.6c-90.991 3.2725-182.32-0.68-273.44 1.2972-18.277 0.6095-37.127 0.4567-55.033 2.2341-10.254 13.748-8.7198 31.704-9.6833 47.812 0.8794 53.008 0.3587 106.02 0.4353 159.03 23.225 33.736 49.5 68.766 88.801 85.844 18.604 7.3697 40.492 3.365 55.972-8.512 36.456-22.734 65.502-53.962 99.608-79.673 30.11-26.378 61.744-55.2 102.99-63.326 3.5907-0.5141 8.2184 0.021 6.236-5.0206-0.5871-43.09 4.4885-86.878-4.6583-129.38-1.8988-4.5276-5.1708-10.851-11.234-10.312z" fill="url(#b)"/>
 </g>
</svg>
