<?xml version="1.0" encoding="UTF-8"?>
<svg viewBox="0 0 600 629.96259" xmlns="http://www.w3.org/2000/svg" xmlns:xlink="http://www.w3.org/1999/xlink">
 <defs>
  <clipPath id="af">
   <path d="m1057.4-3191.8-123.72-102.93c86.847-236.74 365.73-477.42 770.08-400.02l30.359 89.938c-256.4 103.41-402.02 211.67-676.71 413.01z"/>
  </clipPath>
  <filter id="x">
   <feGaussianBlur stdDeviation="17.0906"/>
  </filter>
  <filter id="ae">
   <feGaussianBlur stdDeviation="52.3465"/>
  </filter>
  <filter id="ad" x="-.19792" y="-.0861" width="1.3958" height="1.1722">
   <feGaussianBlur stdDeviation="56.9939"/>
  </filter>
  <filter id="y" x="-.18525" y="-.08874" width="1.3705" height="1.1775">
   <feGaussianBlur stdDeviation="85.527"/>
  </filter>
  <filter id="aa" x="-.2232" y="-.08128" width="1.4464" height="1.1626">
   <feGaussianBlur stdDeviation="57.1579"/>
  </filter>
  <filter id="b" x="-.37374" y="-.07147" width="1.7475" height="1.143">
   <feGaussianBlur stdDeviation="23.3447"/>
  </filter>
  <filter id="ab" x="-.21869" y="-.10734" width="1.4374" height="1.2147">
   <feGaussianBlur stdDeviation="38.3229"/>
  </filter>
  <filter id="ac" x="-.33234" y="-.40435" width="1.6647" height="1.8087">
   <feGaussianBlur stdDeviation="83.4707"/>
  </filter>
  <filter id="z" x="-.14794" y="-.60989" width="1.2959" height="2.2198">
   <feGaussianBlur stdDeviation="78.7498"/>
  </filter>
  <linearGradient id="w" x1="-1147.5" x2="297.66" y1="-2701.4" y2="-2598" gradientUnits="userSpaceOnUse">
   <stop stop-color="#0096fe" stop-opacity=".0657" offset="0"/>
   <stop stop-color="#0096fe" stop-opacity="0" offset="1"/>
  </linearGradient>
  <linearGradient id="k" x1="-1147.5" x2="1478.9" gradientUnits="userSpaceOnUse">
   <stop stop-color="#fff" offset="0"/>
   <stop offset=".5092"/>
   <stop stop-color="#fff" offset="1"/>
  </linearGradient>
  <linearGradient id="a">
   <stop stop-color="#17adff" offset="0"/>
   <stop stop-color="#17adff" stop-opacity="0" offset="1"/>
  </linearGradient>
  <linearGradient id="u" x1="1002.3" x2="1463.1" y1="-4196" y2="-4951.6" gradientUnits="userSpaceOnUse">
   <stop stop-color="#aef5ff" stop-opacity=".7793" offset="0"/>
   <stop stop-color="#aef5ff" stop-opacity="0" offset="1"/>
  </linearGradient>
  <linearGradient id="t" x1="1401.9" x2="1302.5" y1="-4310.7" y2="-5116.4" gradientUnits="userSpaceOnUse">
   <stop stop-color="#68f0ff" stop-opacity=".7653" offset="0"/>
   <stop stop-color="#a6f3ff" offset=".326"/>
   <stop stop-color="#7ee4ff" stop-opacity=".6432" offset=".6991"/>
   <stop stop-color="#3fd1ff" stop-opacity=".4366" offset="1"/>
  </linearGradient>
  <linearGradient id="s" x1="678.06" x2="1009.2" y1="-4592.1" y2="-4330.8" gradientUnits="userSpaceOnUse">
   <stop stop-color="#fff" offset="0"/>
   <stop stop-color="#fff" stop-opacity="0" offset="1"/>
  </linearGradient>
  <linearGradient id="q" x1="1171.4" x2="652.08" y1="-2657.3" y2="-2692.8" gradientUnits="userSpaceOnUse">
   <stop stop-color="#6b9dff" offset="0"/>
   <stop stop-color="#6b9dff" stop-opacity="0" offset="1"/>
  </linearGradient>
  <linearGradient id="p" x1="-363.65" x2="-325.22" y1="-1993.2" y2="-2460.7" gradientUnits="userSpaceOnUse">
   <stop stop-color="#002b6e" offset="0"/>
   <stop stop-color="#002c71" stop-opacity=".554" offset="1"/>
  </linearGradient>
  <linearGradient id="o" x1="-827.53" x2="-457.55" y1="-2210.8" y2="-2469.6" gradientUnits="userSpaceOnUse">
   <stop stop-color="#47d8ff" offset="0"/>
   <stop stop-color="#caecff" stop-opacity=".1737" offset="1"/>
  </linearGradient>
  <linearGradient id="n" x1="888.75" x2="789.32" y1="-3195.5" y2="-4001.2" gradientUnits="userSpaceOnUse">
   <stop stop-color="#68f0ff" stop-opacity=".7653" offset="0"/>
   <stop stop-color="#a6f3ff" offset=".326"/>
   <stop stop-color="#fff" stop-opacity=".498" offset=".6991"/>
   <stop stop-color="#fff" stop-opacity="0" offset="1"/>
  </linearGradient>
  <linearGradient id="m" x1="1092.8" x2="1183.1" y1="-3059.5" y2="-3357.3" gradientUnits="userSpaceOnUse">
   <stop stop-color="#000080" offset="0"/>
   <stop stop-color="#000080" stop-opacity="0" offset="1"/>
  </linearGradient>
  <linearGradient id="j" x1="1141.8" x2="903.69" y1="-3163" y2="-3319.3" gradientUnits="userSpaceOnUse">
   <stop stop-color="#fff" offset="0"/>
   <stop offset="1"/>
  </linearGradient>
  <linearGradient id="l" x1="-827.53" x2="-409.06" y1="-2210.8" y2="-3099.9" gradientUnits="userSpaceOnUse">
   <stop stop-color="#47d8ff" stop-opacity="0" offset="0"/>
   <stop stop-color="#ddf3ff" stop-opacity=".1784" offset="1"/>
  </linearGradient>
  <linearGradient id="v" x1="-396.9" x2="30.484" y1="-3481.3" y2="-3940.9" gradientUnits="userSpaceOnUse" xlink:href="#a"/>
  <linearGradient id="r" x1="679.41" x2="-335.48" y1="-1549.3" y2="-1733" gradientUnits="userSpaceOnUse" xlink:href="#a"/>
  <mask id="i" maskUnits="userSpaceOnUse">
   <path d="m1478.9-2701.4a1313.2 1313.2 0 1 1 -2626.4 0 1313.2 1313.2 0 1 1 2626.4 0z" fill="url(#k)"/>
  </mask>
  <mask id="h" maskUnits="userSpaceOnUse">
   <path d="m1327.7-3285.2c0 45.761-181.06 119.09-239.1 143.23-121.99 50.743-165.27-31.55-143.88-171.33 5.9166-38.662 121.12-212.04 241.69-116.23 37.393 29.717 141.29 98.565 141.29 144.33z" fill="url(#j)"/>
  </mask>
  <radialGradient id="g" cx="165.67" cy="-2701.4" r="1313.2" gradientUnits="userSpaceOnUse">
   <stop stop-color="#010822" offset="0"/>
   <stop stop-color="#07184f" offset=".9538"/>
   <stop stop-color="#040b25" offset="1"/>
  </radialGradient>
  <radialGradient id="f" cx="391.94" cy="-2467" r="1313.2" gradientUnits="userSpaceOnUse">
   <stop stop-color="#31d3ff" offset="0"/>
   <stop stop-color="#0bc4ff" offset=".2334"/>
   <stop stop-color="#118cd0" offset=".4046"/>
   <stop stop-color="#195299" offset=".5953"/>
   <stop stop-color="#0e2767" offset=".7541"/>
   <stop stop-color="#07174a" offset="1"/>
  </radialGradient>
  <radialGradient id="e" cx="523.81" cy="-2614.7" r="1204.2" gradientTransform="matrix(.93672 -.11426 .1083 .8879 1942.2 -1179.5)" gradientUnits="userSpaceOnUse">
   <stop stop-color="#10319a" stop-opacity=".8216" offset="0"/>
   <stop stop-color="#091b52" stop-opacity="0" offset="1"/>
  </radialGradient>
  <radialGradient id="d" cx="165.67" cy="-2701.4" r="1313.2" gradientUnits="userSpaceOnUse">
   <stop stop-color="#fff" stop-opacity="0" offset="0"/>
   <stop stop-color="#fff" stop-opacity="0" offset=".9518"/>
   <stop stop-color="#fff" stop-opacity=".231" offset="1"/>
  </radialGradient>
  <radialGradient id="c" cx="257.4" cy="-2785" r="267.84" gradientTransform="matrix(4.3812 -.11947 .13701 5.0245 1065.6 10289)" gradientUnits="userSpaceOnUse">
   <stop stop-color="#fff" stop-opacity="0" offset="0"/>
   <stop stop-color="#8ce7ff" stop-opacity=".2254" offset=".8997"/>
   <stop stop-color="#80e4ff" stop-opacity=".5681" offset=".961"/>
   <stop stop-color="#fff" stop-opacity=".8967" offset="1"/>
  </radialGradient>
 </defs>
 <g transform="matrix(.22625 0 0 .22625 -86.258 1178.7)">
  <path transform="translate(1554.3 -1108.3)" d="m1478.9-2701.4c0 725.26-587.94 1313.2-1313.2 1313.2s-1313.2-587.94-1313.2-1313.2 587.94-1313.2 1313.2-1313.2 1313.2 587.94 1313.2 1313.2z" fill="url(#g)"/>
  <path transform="matrix(.94462 0 0 .94462 1563.5 -1223.9)" d="m1478.9-2701.4c0 725.26-587.94 1313.2-1313.2 1313.2s-1313.2-587.94-1313.2-1313.2 587.94-1313.2 1313.2-1313.2 1313.2 587.94 1313.2 1313.2z" fill="url(#f)"/>
  <path d="m1481.9-3116.8c321.18-186.6 103.68-359.34-56.47-1029.1 185.66-239.08 886.37-451.43 1053.7-91.904 196.22 509.13-176.15 675.98 22.787 1154.9 24.011 61.633 18.102 149.27-41.723 253.35 160.97 94.498 644.92-793.66 402.6-1375.2s-669.63-856.78-1205.7-811.43-1069.3 629.19-1124.5 973.15 103.2 875.79 437.3 1013.9c112.21 46.393 190.81 98.964 511.99-87.631z" fill="url(#e)" opacity=".6091"/>
  <path d="m1161.8-4684.2c-93.871-3.107-187.65 77.464-252.78 137.24-309.59 343.47-299.32 649.3-175.82 1110.4 49.183 131.53 223.13 330.18 248.41 339.69 6.3348 2.3825-112.22-183.32-108.38-191.52-197.88-725.37 25.266-1012 420.5-1290.5 153.33-147.23-91.416-95.71-131.92-105.32z" fill="#aef5ff" fill-opacity=".3944" filter="url(#ad)"/>
  <path transform="matrix(.51347 .50032 -.54327 .55755 417.83 -2255.4)" d="m1478.9-2701.4c0 725.26-587.94 1313.2-1313.2 1313.2s-1313.2-587.94-1313.2-1313.2 587.94-1313.2 1313.2-1313.2 1313.2 587.94 1313.2 1313.2z" fill="url(#w)"/>
  <path transform="matrix(.94462 0 0 .94462 1563.5 -1251.9)" d="m1478.9-2701.4c0 725.26-587.94 1313.2-1313.2 1313.2s-1313.2-587.94-1313.2-1313.2 587.94-1313.2 1313.2-1313.2 1313.2 587.94 1313.2 1313.2z" fill="url(#d)" mask="url(#i)" opacity=".78"/>
  <path transform="matrix(.94498 0 0 .94498 1544.1 -1223.4)" d="m-78.737-3967.6c-138.67 2.8086-339.99 116.53-412.07 178.4-238.24 204.49-577.36 476.66-530.05 1075.7 34.429 435.95 232.34 833.86 574.21 1054.8 140.02 90.471 263.15 120.25 470.62 181.5-311.6-113.21-377.52-107.72-434.41-268.18-197.42-556.88-144.83-757.03-136.18-1029.7 14.358-452.67 116.23-600.91 579.55-1075.2z" fill="url(#v)" filter="url(#y)"/>
  <path d="m1088.2-4727.2c-89.146 35.71-142.34 96.281-207.47 156.05-309.59 343.47-293.89 736.4-113.25 1214.7 49.183 131.53 223.13 330.18 248.41 339.69 6.3349 2.3825-112.22-183.32-108.38-191.52-231.5-754.5-17.107-1136.1 355.68-1428.5s-85.833-126.14-174.98-90.427z" fill="url(#u)" filter="url(#aa)"/>
  <path transform="matrix(.39524 .91858 -.91858 .39524 -3712.6 -4172.7)" d="m1299.7-5096.9c-85.24 323.34-11.839 558.04 113.14 783.88" fill="none" filter="url(#b)" stroke="url(#t)" stroke-width="25"/>
  <path d="m746.18-3835.9c56.972-353.13 216.96-597.35 399.45-795.23-180.79-27.538-595.08 335.93-399.45 795.23z" fill="#aef5ff" fill-opacity=".7653" filter="url(#ab)"/>
  <path d="m1059.6-4889.8c-326.85 192.27-557.85 530.03-603.97 924.27-29.648 236.35 27.375 213.87 70.143 54.454 69.532-265.44 225.78-494.3 437.29-659.35 89.1-69.53 148.65-112.01 294.83-205.26s-4.7536-223.95-198.29-114.11z" fill="url(#s)"/>
  <path transform="matrix(.83123 .4495 -.4495 .83123 318.27 -1749.2)" d="m-437.07-1675.9c140.83 94.008 587.03 379 1140 181.24-509.19 96.57-838.3-169.95-1042.3-337.3z" fill="url(#r)" filter="url(#x)" opacity=".4943"/>
  <path transform="matrix(.97452 0 0 1.0235 1547.7 -983.13)" d="m146.56-3752.2c-41.109-0.064-82.685 2.194-124.62 6.9063-52.655 5.9162-104.1 15.523-154.09 28.469 10.905-1.5547 21.862-2.9813 32.875-4.2187 596.48-67.019 1163.4 360.5 1216.5 954.91 46.142 516.95-641.09 957.55-1155.2 861.55-24.098-4.4997 308.73 175.15 284.92 181.31 579.71-82.64 1003.2-483.64 951.12-1067.1-49.324-552.61-507.92-961-1051.5-961.84z" fill="url(#q)" filter="url(#ae)" opacity=".32"/>
  <path transform="matrix(1 0 0 1.7826 1554.3 492.76)" d="m0-2095.3c-37.379 46.847-128.44 92.934-286.88 92.934s-286.88-41.608-286.88-92.934 20.173-337.81 154.47-384.96c278.13-97.662 536.65 237.88 419.29 384.96z" fill="url(#p)" filter="url(#ac)" opacity=".5885"/>
  <path transform="translate(1532.3 -1154.3)" d="m-462.86-2084.8-262.86-17.143c-244.41-338.74-308.04-836.71 191.51-1074.7l154.29 77.633c-105.1 324.02-96.035 564.27-82.941 1014.2z" fill="url(#o)"/>
  <path transform="matrix(.76072 .19915 -.1934 .78337 901.67 -2086.8)" d="m1044.9-3767.1c20.291 56.838-146.56 65.645-348.21 136.87-44.96 15.88-259.6-31.307-313.85-27.71-379.04 25.136-622.13 117.51-617.82 46.164 4.3855-72.525 332.39-252.03 665.22-262.62 248.79-7.9161 585.94 26.868 614.65 107.31z" filter="url(#z)" opacity=".5885"/>
  <path d="m2476.3-4711.3c-6.39-0.01-12.792 0.2669-19.219 0.7812 53.249 95.074 88.949 146.23 116.5 254.38 161.64 213.42 257.56 479.36 257.56 767.72 0 173.73-34.817 339.34-97.844 490.22 22.604 22.433 42.368 47.544 58.781 74.812 127.02-198.02 200.69-433.53 200.69-686.25 0-251.76-73.096-486.45-199.22-684-66.151-112.27-187.32-217.54-317.25-217.66z" fill="url(#c)"/>
  <path d="m786.57-3981.7c-85.24 323.34-11.839 558.04 113.14 783.88" fill="none" filter="url(#b)" stroke="url(#n)" stroke-width="25"/>
  <path transform="matrix(.96975 -.80588 1.3881 1.1352 4474.6 1236.4)" d="m1327.7-3285.2c0 45.761-181.06 119.09-239.1 143.23-121.99 50.743-165.27-31.55-143.88-171.33 5.9166-38.662 121.12-212.04 241.69-116.23 37.393 29.717 141.29 98.565 141.29 144.33z" clip-path="url(#af)" fill="url(#m)" mask="url(#h)" opacity=".679"/>
  <path transform="translate(1532.3 -1154.3)" d="m-462.86-2084.8-262.86-17.143c-244.41-338.74-308.04-836.71 191.51-1074.7l154.29 77.633c-105.1 324.02-96.035 564.27-82.941 1014.2z" fill="url(#l)"/>
 </g>
</svg>
